<?xml version="1.0" encoding="UTF-8"?>
<svg xmlns="http://www.w3.org/2000/svg" width="28" height="28" viewBox="0 0 28 28" fill="none">
  <path d="M8.10493 8.4812L6.02566 8.64184C5.44708 8.68656 4.93179 8.98979 4.61182 9.47377L2.21385 13.1006C1.97118 13.4676 1.93261 13.9269 2.11059 14.3293C2.28862 14.7317 2.65448 15.0121 3.08924 15.0794L4.99306 15.3743C5.43841 13.0108 6.50453 10.6532 8.10493 8.4812Z" fill="#BBF340"></path>
  <path d="M12.626 23.0069L12.9209 24.9107C12.9882 25.3455 13.2686 25.7113 13.671 25.8893C13.8383 25.9634 14.0155 25.9999 14.1918 25.9999C14.4395 25.9999 14.6854 25.9278 14.8997 25.786L18.5266 23.3881C19.0106 23.0681 19.3138 22.5528 19.3585 21.9743L19.5191 19.895C17.347 21.4955 14.9894 22.5616 12.626 23.0069Z" fill="#BBF340"></path>
  <path d="M11.9095 21.6874C11.9756 21.6874 12.042 21.682 12.1084 21.6709C13.0986 21.5054 14.0529 21.2265 14.9633 20.8614L7.13853 13.0366C6.77347 13.947 6.49456 14.9013 6.329 15.8916C6.26375 16.2819 6.39467 16.6795 6.67447 16.9594L11.0406 21.3255C11.2729 21.5577 11.5864 21.6874 11.9095 21.6874Z" fill="#BBF340"></path>
  <path d="M24.0865 12.6407C26.0013 8.93882 26.0722 5.02684 25.9722 3.19216C25.9379 2.56353 25.4367 2.06234 24.808 2.02808C24.5093 2.01177 24.1553 2 23.7562 2C21.7047 2 18.4586 2.31073 15.3595 3.91371C12.8966 5.18762 9.66708 7.99265 7.76172 11.679C7.78422 11.6965 7.8062 11.7152 7.82692 11.7359L16.2644 20.1734C16.2851 20.1941 16.3037 20.216 16.3213 20.2385C20.0076 18.3331 22.8126 15.1036 24.0865 12.6407ZM15.9547 7.07372C17.3254 5.70306 19.5557 5.70291 20.9265 7.07372C21.5905 7.7377 21.9562 8.62058 21.9562 9.55963C21.9562 10.4987 21.5905 11.3816 20.9265 12.0455C20.2412 12.7308 19.3408 13.0735 18.4406 13.0736C17.5402 13.0736 16.6402 12.731 15.9547 12.0455C15.2907 11.3816 14.925 10.4987 14.925 9.55963C14.925 8.62058 15.2907 7.7377 15.9547 7.07372Z" fill="#BBF340"></path>
  <path d="M16.949 11.0511C17.7714 11.8735 19.1097 11.8736 19.9321 11.0511C20.3305 10.6526 20.5499 10.123 20.5499 9.55952C20.5499 8.99608 20.3305 8.46639 19.9321 8.068C19.5209 7.65677 18.9807 7.45117 18.4406 7.45117C17.9004 7.45117 17.3602 7.65677 16.949 8.068C16.5506 8.46639 16.3312 8.99608 16.3312 9.55952C16.3312 10.123 16.5506 10.6527 16.949 11.0511Z" fill="#BBF340"></path>
  <path d="M2.7178 21.7783C2.89775 21.7783 3.0777 21.7097 3.21496 21.5723L5.51057 19.2767C5.78516 19.0021 5.78516 18.557 5.51057 18.2824C5.23602 18.0078 4.7908 18.0078 4.51621 18.2824L2.22059 20.578C1.946 20.8526 1.946 21.2977 2.22059 21.5723C2.35789 21.7096 2.53784 21.7783 2.7178 21.7783Z" fill="#BBF340"></path>
  <path d="M7.61383 20.3861C7.33928 20.1115 6.89406 20.1115 6.61947 20.3861L2.20595 24.7996C1.93135 25.0742 1.93135 25.5194 2.20595 25.794C2.34324 25.9313 2.5232 25.9999 2.70315 25.9999C2.8831 25.9999 3.06306 25.9313 3.20031 25.794L7.61378 21.3805C7.88842 21.1059 7.88842 20.6607 7.61383 20.3861Z" fill="#BBF340"></path>
  <path d="M8.72319 22.4899L6.42763 24.7855C6.15303 25.0601 6.15303 25.5053 6.42763 25.7799C6.56492 25.9172 6.74488 25.9858 6.92478 25.9858C7.10469 25.9858 7.28469 25.9172 7.42194 25.7799L9.71755 23.4842C9.99215 23.2096 9.99215 22.7645 9.71755 22.4899C9.44301 22.2153 8.99779 22.2153 8.72319 22.4899Z" fill="#BBF340"></path>
</svg>
